<svg xmlns="http://www.w3.org/2000/svg" viewBox="0 0 1400 760" role="img" aria-labelledby="t d"><title id="t">Sustainable cultural food festival</title><desc id="d">Reusable bowls, digital information, plant-forward foods and three waste streams.</desc><defs><linearGradient id="b" y2="1"><stop stop-color="#e3f0e6"/><stop offset="1" stop-color="#f8dfb6"/></linearGradient><filter id="s"><feDropShadow dy="10" stdDeviation="14" flood-opacity=".14"/></filter></defs><rect width="1400" height="760" fill="url(#b)"/><text x="70" y="85" font-family="Arial" font-size="30" font-weight="800" fill="#17352f">A LIGHTER FOOTPRINT</text><text x="70" y="125" font-family="Arial" font-size="18" fill="#47635b">Sustainability is part of every visitor action.</text>
<g filter="url(#s)"><rect x="80" y="195" width="300" height="420" rx="38" fill="#fffaf0"/><rect x="420" y="195" width="300" height="420" rx="38" fill="#fffaf0"/><rect x="760" y="195" width="560" height="420" rx="38" fill="#fffaf0"/></g>
<g font-family="Arial" text-anchor="middle"><circle cx="230" cy="330" r="95" fill="#2d765f"/><path d="M165 335q65 95 130 0z" fill="#bdd9c8"/><path d="M190 300q40-45 80 0" fill="none" stroke="#fffaf0" stroke-width="12" stroke-linecap="round"/><text x="230" y="480" font-size="25" font-weight="800" fill="#17352f">REUSABLE</text><text x="230" y="515" font-size="17" fill="#47635b">Bowls · cups · trays</text><rect x="500" y="255" width="140" height="235" rx="20" fill="#17352f"/><rect x="515" y="275" width="110" height="170" rx="8" fill="#bdd9c8"/><circle cx="570" cy="468" r="10" fill="#ed6a4b"/><path d="M540 340l24 24 44-55" fill="none" stroke="#2d765f" stroke-width="14" stroke-linecap="round"/><text x="570" y="540" font-size="25" font-weight="800" fill="#17352f">100% DIGITAL</text><text x="570" y="575" font-size="17" fill="#47635b">Maps · stories · feedback</text></g>
<g font-family="Arial" text-anchor="middle"><text x="1040" y="255" font-size="25" font-weight="800" fill="#17352f">THREE CLEAR WASTE STREAMS</text><g transform="translate(860 320)"><rect width="140" height="180" rx="18" fill="#2d765f"/><path d="M35 75h70v75H35z" fill="#fffaf0"/><text x="70" y="215" fill="#17352f" font-size="18" font-weight="800">FOOD</text></g><g transform="translate(970 320)"><rect width="140" height="180" rx="18" fill="#f2b544"/><path d="M45 55h50l20 95H25z" fill="#fffaf0"/><text x="70" y="215" fill="#17352f" font-size="18" font-weight="800">RECYCLE</text></g><g transform="translate(1080 320)"><rect width="140" height="180" rx="18" fill="#ed6a4b"/><circle cx="70" cy="100" r="48" fill="#fffaf0"/><text x="70" y="215" fill="#17352f" font-size="18" font-weight="800">RETURN</text></g></g>
<path d="M1115 690c-90 25-180 4-245-53 93-3 171-50 226-125 47 66 54 127 19 178z" fill="#2d765f" opacity=".16"/><text x="70" y="705" font-family="Arial" font-size="19" font-weight="800" fill="#ed6a4b">TARGET: 30% LESS AVOIDABLE FOOD WASTE</text></svg>
